<?xml version="1.0" encoding="utf-8" ?><svg xmlns="http://www.w3.org/2000/svg" xmlns:xlink="http://www.w3.org/1999/xlink" width="1069" height="1069" viewBox="0 0 1069 1069"><path transform="scale(1.04379 1.04379)" d="M470.838 294.917C473.964 291.857 477.503 289.512 476.881 285.775C476.813 282.039 479.651 277.93 481.067 274.414C490.016 252.201 504.168 231.375 524.01 217.59C529.04 214.095 532.913 210.694 538.682 208.291C562.675 198.295 583.387 204.56 585.663 233.209C583.564 237.005 582.789 241.397 580.396 245.082C566.672 266.213 538.461 269.803 518.1 257.083C515.198 259.419 505.388 270.438 503.378 273.828C496.215 285.909 492.307 300.185 488.991 313.668C486.966 321.898 489.804 327 490.515 335.216C490.638 336.599 489.801 338.446 489.986 339.841C493.3 344.363 495.818 363.349 500.851 364.934C502.798 362.797 507.228 356.459 509.056 355.226C519.031 348.493 529.458 341.731 539.75 335.445C543.058 333.425 546.325 334.367 549.285 333.053C552.896 331.449 556.384 329.499 559.983 327.831C561.288 328.242 562.604 328.507 563.972 328.565C567.104 328.697 590.537 323.947 592.252 322.476C593.223 321.643 593.314 318.728 593.492 317.46C594.51 310.184 596.152 303.01 598.399 296.016C602.437 283.09 620.356 254.78 630.074 245.914C645.311 233.456 672.566 218.585 692.316 218.722C716.832 218.891 727.981 244.04 711.62 262.41C704.163 272.144 687.519 277.801 675.273 276.352C662.878 274.885 652.3 269.903 644.438 259.948C641.127 264.083 637.138 267.992 633.758 272.131C629.256 276.954 626.734 284.017 622.325 288.838C617.725 293.868 607.818 318.238 611.477 323.571C612.778 324.348 614.266 324.631 615.724 324.441C620.328 323.803 624.919 326.459 629.4 327.277C638.899 329.009 647.556 331.344 656.487 335.061C660.378 336.681 664.902 337.672 668.798 339.486C687.736 348.306 703.143 362.849 713.69 380.846C717.96 388.024 719.601 393.888 723.528 401.018C722.184 408.965 726.859 414.05 724.033 419.155C721.506 423.719 723.413 427.851 722.527 431.42C716.855 454.26 695.699 470.058 677.49 482.91C673.374 485.815 670.221 486.803 666.059 489.973L665.415 490.467L662.237 490.668C656.972 490.961 654.716 491.907 650.851 495.797C639.456 497.736 631.87 502.133 621.044 505.185C614.831 506.937 601.911 508 594.992 509.093C593.967 509.255 588.432 508.52 586.967 508.555C579.936 508.727 574.523 508.401 567.589 507.313C564.24 506.787 555.674 504.621 553.12 505.461L552.967 506.451C554.553 508.721 556.709 509.978 558.651 511.85C564.57 517.555 570.716 522.404 577.739 526.701C580.999 528.696 584.407 530.68 587.114 533.426L587.625 533.955C597.181 533.589 593.053 534.54 600.635 537.078C611.01 540.551 624.839 543.453 634.475 536.945C637.239 536.386 640.294 535.926 642.978 535.098C657.907 530.491 673.345 526.652 688.677 523.67C693.403 522.75 697.852 520.407 702.875 520.039C716.404 519.047 727.189 526.626 727.327 540.505C725.627 542.881 723.776 544.92 722.234 547.534C713.438 562.433 697.958 560.408 687.69 548.273C686.191 546.501 684.075 544.192 682.206 542.859C680.793 541.852 679.373 542.216 677.856 542.628C669.626 545.206 661.513 548.807 653.37 551.757C646.503 554.245 641.009 554.83 633.999 556.319C631.219 556.91 625.371 560.282 622.744 560.783C605.027 564.163 581.744 553.196 566.801 545.254C566.075 548.041 567.034 550.987 566.175 552.568C562.83 552.995 563.865 550.579 560.306 555.535C558.873 557.531 557.351 559.524 554.788 559.957C556.962 563.309 560.456 565.659 562.481 568.542C582.713 597.351 662.088 572.264 669.912 610C665.824 621.798 656.461 627.942 644.303 624.169C633.672 620.869 628.406 615.7 625.598 604.849C625.219 603.383 624.506 601.637 623.914 600.23C622.03 599.658 617.97 600.714 615.483 600.596C599.972 599.858 581.44 599.998 566.346 596.949C560.178 595.704 544.218 580.437 538.911 575.441C534.324 571.123 535.141 570.025 528.765 566.27C525.676 560.388 524.567 559.248 519.53 554.871C516.146 559.584 508.871 564.828 503.263 566.445L498.492 568.689C498.471 567.704 504.887 590.203 504.257 589.224C518.07 610.683 534.463 637.792 560.688 644.651C564.034 645.545 579.434 656.389 581.088 660.044C582.335 662.803 582.336 668.114 583.47 670.817C608.481 674.843 634.387 673.531 659.689 675.617C662.845 675.877 666.123 679.109 669.421 679.762C670.146 679.476 673.965 677.983 674.499 678.043C678.806 678.525 687.198 680.411 690.4 683.216C689.783 687.59 675.496 687.831 671.906 688.217C664.849 688.975 657.262 688.078 650.138 688.111C637.099 688.524 624.518 687.724 611.56 689.131C608.88 689.422 604.304 689.904 602.067 689.172C596.135 686.859 592.229 689.213 586.376 689.875C584.23 690.117 579.892 689.015 577.478 689.146C569.964 689.551 562.767 689.292 555.271 688.731C552.021 688.488 547.377 690.169 544.007 690.105C541.927 690.177 535.295 688.409 533.695 688.605C528.624 689.227 526.323 690.114 520.994 690.271C514.621 690.665 508.111 689.492 501.885 689.306C494.903 689.097 487.964 689.43 480.936 689.067C473.61 688.689 459.805 687.305 453.217 690.281L445.144 687.666C438.529 690.433 426.375 690.54 419.024 689.964C411.444 689.369 405.755 688.148 397.979 689.309C385.377 688.409 374.604 690.773 362.302 687.922C353.254 691.458 350.444 690.85 341.067 689.073C335.028 691.979 331.916 688.824 325.961 688.808C321.789 688.796 316.942 690.975 312.659 690.763C309.442 690.854 301.955 688.663 299.64 689.029C289.888 690.571 290.798 691.477 281.557 688.524C280.412 688.849 274.516 690.568 273.793 690.413C256.689 686.732 239.225 689.647 221.943 687.564C218.201 687.113 212.809 684.62 209.562 683.086C217.259 679.694 222.682 679.266 230.861 677.732C238.283 676.339 242.094 674.395 249.914 675.805C255.354 673.013 266.67 674.624 268.111 672.513C268.412 665.208 268.42 660.536 274.412 655.216C279.058 651.092 290.016 644.872 296.278 645.485C298.854 645.737 304.105 646.997 305.992 646.431C308.295 638.292 307.465 634.464 315.832 628.52C317.941 620.598 319.163 613.582 325.628 607.799C326.291 604.974 326.771 601.598 328.397 599.335C323.832 593.956 323.431 598.702 315.593 596.49C310.166 595.874 306.345 597.677 301.486 597.473C295.326 597.215 288.535 595.363 282.16 595.478C281.206 595.961 274.229 591.871 274.1 591.931C266.804 595.329 263.937 592.285 257.408 589.191C254.428 587.779 249.661 587.353 246.719 585.7C243.378 583.822 240.382 580.685 237.24 578.475C235.141 576.926 232.289 576.284 230.757 575.024C220.74 566.789 212.182 558.626 204.128 548.637C203.967 539.468 198.534 537.198 205.948 529.126C205.763 498.846 243.376 461.178 264.836 442.158C275.145 433.022 294.443 418.739 307.778 416.439C314.49 409.599 318.278 411.98 326.505 409.1C329.506 407.912 332.591 405.368 335.629 404.438C349.954 400.05 366.21 398.352 381.108 398.017C390.469 397.807 402.127 402.009 411.072 404.218C413.435 404.801 418.076 411.6 420.947 412.645C425.076 414.235 429.76 409.168 433.178 407.322C449.162 397.515 465.404 386.701 484.555 395.609C484.841 393.768 486.754 383.955 486.443 382.964C485.43 379.739 480.132 373.712 478.751 369.821C476.511 363.513 474.442 356.564 472.501 350.261C470.929 345.157 467.491 333.413 467.049 328.33C466.312 319.863 469.167 303.819 470.838 294.917ZM233.764 519.009C234.673 519.848 236.435 520.272 237.632 520.481C242.521 518.411 238.696 509.765 241.182 505.104L241.043 502.219C238.562 510.144 233.069 508.982 233.764 519.009ZM446.864 671.928C454.921 671.969 458.885 671.816 466.571 673.649C477.609 668.318 477.563 672.759 487.489 672.25C503.294 671.439 518.132 671.897 533.861 671.991C525.128 664.072 530.168 662.315 524.937 653.26C523.181 650.221 515.17 645.239 513.02 641.685C511.797 640.015 511.651 634.535 510.338 633.224C504.338 627.231 500.412 625.082 497.658 616.489C497.4 615.686 490.636 608.685 489.465 607.392C488.916 603.737 488.59 601.785 487.593 598.238C487.313 597.974 487.043 597.7 486.756 597.444C479.787 591.234 473.183 567.324 469.788 557.839C465.61 555.791 463.874 554.732 460.242 551.69C453.103 562.595 443.67 571.058 433.542 579.117C426.841 584.449 419.865 585.924 411.929 588.183L410.638 589.328C409.745 592.462 419.667 605.294 421.832 608.921C427.079 617.712 432.797 625.835 437.568 634.996C439.685 639.061 443.95 643.56 445.439 648.106C447.159 656.306 450.626 664.099 446.864 671.928ZM504.098 430.018C505.596 432.51 506.006 433.171 507.989 435.27C507.843 444.959 509.621 443.93 515.125 451.787C516.198 453.318 516.167 456.649 517.996 458.529C521.949 458.191 520.832 459.048 523.986 461.271C526.901 463.325 527.864 464.963 529.42 468.135C531.382 469.084 532.237 467.721 534.447 468.73C536.748 474.344 539.329 471.654 542.535 474.638L542.992 475.402C546.246 476.157 549.171 478.039 551.657 480.218C554.2 479.893 557.72 479.14 560.038 479.935L560.788 480.989C562.518 481.73 567.064 480.919 569.217 480.655C570.364 481.543 571.421 482.393 572.911 482.461C579.667 482.77 587.208 484.572 593.779 484.947C596.43 485.098 604.509 482.755 607.727 482.391C615.24 481.542 626.896 481.794 633.442 477.751C639.641 473.923 645.925 474.312 652.766 470.583C659.114 466.862 667.644 463.636 673.45 459.146C678.742 455.054 684.196 449.817 689.699 445.799C692.285 443.912 695.865 438.332 697.827 435.776C700.451 432.357 701.699 426.702 704.24 423.126C705.271 421.613 705.755 420.768 706.575 419.086L704.251 413.831L706.258 408.582C703.114 393.489 699.533 389.315 690.839 377.228C684.49 375.74 685.412 371.995 680.63 368.463C670.23 360.781 652.781 353.048 640.254 349.647C639.662 350.036 639.071 350.425 638.479 350.814C635.404 349.537 629.73 346.12 626.712 345.745C618.026 344.667 610.075 344.372 601.355 344.547C598.276 344.609 592.402 342.596 588.496 342.985C584.611 343.373 580.703 344.874 577.153 345.307C575.05 345.563 571.735 344.632 568.696 344.839C566.371 348.844 560.607 349.165 556.167 350.172C551.971 355.895 541.097 355.063 536.153 360.616L537.291 361.673C537.547 363.899 530.25 365.678 527.9 367.487C523.498 370.874 523.584 373.709 520.77 377.804C518.939 379.901 516.583 381.083 514.962 383.391C510.958 389.092 509.085 396.407 505.043 401.966C505.009 406.655 504.758 417.043 507.71 420.3C507.568 421.582 504.819 427.931 504.098 430.018ZM473.313 413.43L468.282 410.698C465.75 411.574 465.1 411.841 462.456 412.037L461.796 412.238C459.248 412.992 451.183 414.101 449.967 414.867C442.559 419.53 430.9 428.52 425.506 435.39C424.592 436.553 423.593 441.135 422.777 442.514C419.885 447.403 417.468 449.652 415.816 455.282C417.219 457.254 417.816 457.386 417.972 459.411L416.843 461.857C416.001 463.49 415.693 464.069 415.14 465.801C416.704 476.257 421.27 480.241 423.458 490.13C428.892 497.41 431.829 503.418 440.602 506.485C441.698 507.982 442.767 509.452 443.912 510.912C454.747 513.423 468.559 517.02 480.373 516.542C481.073 516.514 485.507 514.619 486.204 514.274C491.131 511.835 494.455 511.631 499.899 511.35C503.6 508.335 507.522 508.614 511.454 505.348C515.075 502.34 524.445 498.39 526.887 494.741C526.238 493.253 523.145 491.656 521.576 490.652C517.587 487.162 514.306 482.407 508.859 481.329C505.94 480.751 496.292 466.869 494.914 464.364C493.386 461.475 490.905 457.628 489.166 454.751C488.009 444.97 483.85 442.913 482.981 432.147C483.081 428.024 482.794 425.432 482.349 421.292C483.245 417.88 483.83 416.662 481.088 414.188C480.085 413.312 479.813 413.147 478.731 412.39C476.861 411.975 475.175 412.799 473.313 413.43ZM344.609 440.524C341.817 441.881 342.824 444.216 341.502 446.779L340.516 446.56C337.987 444.357 338.06 442.733 336.07 440.434C334.677 446 330.842 447.864 329.047 451.519C327.629 454.408 326.023 468.057 325.23 472.047C325.076 472.817 325.905 475.553 326.157 476.356C324.982 479.594 323.019 483.266 324.692 486.018C327.562 490.738 326.007 498.986 326.859 503.274C327.508 506.541 329.793 509.558 330.972 514.918C335.608 518.575 332.43 519.313 336.911 523.782C339.95 524.489 340.448 525.09 342.733 527.123C345.16 527.366 345.61 527.001 347.269 528.219L347.034 528.646C345.268 528.575 344.738 528.193 343.783 529.049C344.036 530.613 343.659 530.02 344.881 530.927C347.025 530.678 349.23 528.929 351.098 527.679C349.884 531.337 346.741 530.876 345.806 533.231C347.524 534.045 347.664 534.052 349.548 534.471L351.289 533.788C350.784 535.22 351.186 534.601 349.926 535.627C348.17 535.731 349.037 535.874 347.314 534.862C348.168 536.522 347.562 535.85 349.343 536.806C351.417 536.568 350.541 536.957 352.103 535.683L352.468 534.394L352.345 535.244C353.639 537.811 353.704 539.198 355.883 541.602C358.642 544.647 368.581 545.655 369.41 549.701C371.825 549.185 372.451 545 374.509 543.515C384.403 536.38 403.37 525.112 410.327 515.597C394.563 504.322 401.015 500.936 392.856 487.618L391.95 483.759C391.918 480.956 392.779 479.444 393.711 476.826C392.883 475.95 390.559 473.824 390.358 472.7C389.148 465.919 390.108 457.883 392.846 451.565C393.948 449.024 397.388 446.218 398.509 443.501C399.865 440.012 400.014 436.248 401.441 432.855C402.432 430.494 405.78 427.341 405.733 425.028C402.22 421.731 397.385 424.117 393.296 422.274C392.553 421.938 389.136 418.449 388.033 417.481C385.423 419.261 381.989 416.978 380.293 418.569L380.851 421.003L382.701 420.63L382.916 421.241C382.058 422.187 381.648 422.095 380.348 422.419C379.786 423.849 379.865 424.078 378.87 425.189C376.48 424.188 375.379 423.767 372.863 424.008C369.328 427.778 364.499 429.069 359.482 428.856C357.546 432.086 354.143 431.228 350.391 434.516C348.49 436.783 346.725 438.466 344.609 440.524ZM393.526 662.732C394.747 660.704 395.834 658.596 397.22 656.676C401.559 650.666 410.514 646.137 417.91 645.4C418.279 642.212 415.252 641.747 413.787 639.474C411.609 636.096 409.743 632.684 407.139 629.564C406.234 628.093 402.461 624.457 401.956 623.217C399.039 616.056 397.112 611.714 392.257 605.586C390.408 603.252 386.89 596.361 385.506 593.634C381.773 592.21 374.937 603.365 360.934 594.915C359.468 599.423 355.459 600.891 353.243 604.63C350.046 610.022 349.287 612.046 344.524 616.24C343.267 621.088 333.884 641.121 329.685 644.77C321.941 651.5 327.265 654.173 326.464 663.201C326.142 666.835 325.852 669.646 325.359 672.847C329.714 672.057 352.727 673.143 353.013 673.012C359.955 669.825 390.331 672.003 393.912 670.027C394.316 667.858 393.791 665.003 393.526 662.732ZM269.235 491.04C270.314 490.033 270.868 489.107 271.698 487.903C268.884 484.434 269.701 486.652 267.06 481.428L266.347 481.303L265.778 482.323C265.457 484.425 264.929 485.484 265.663 487.208C266.671 487.598 267.621 488.024 268.563 488.554C268.912 489.589 269.057 489.971 269.235 491.04Z"/><path fill="#7DDD09" fill-opacity="0.98823529" transform="scale(1.04379 1.04379)" d="M241.043 502.219L241.182 505.104C238.696 509.765 242.521 518.411 237.632 520.481C236.435 520.272 234.673 519.848 233.764 519.009C233.069 508.982 238.562 510.144 241.043 502.219Z"/><path fill="#9AEE1B" fill-opacity="0.98823529" transform="scale(1.04379 1.04379)" d="M265.778 482.323L266.347 481.303L267.06 481.428C269.701 486.652 268.884 484.434 271.698 487.903C270.868 489.107 270.314 490.033 269.235 491.04C269.057 489.971 268.912 489.589 268.563 488.554C267.621 488.024 266.671 487.598 265.663 487.208C264.929 485.484 265.457 484.425 265.778 482.323Z"/><path fill="#68CD04" transform="scale(1.04379 1.04379)" d="M271.698 487.903C280.887 489.207 282.192 483.906 283.444 477.244C283.973 474.429 290.111 478.183 291.674 477.818C292.852 475.179 294.675 475.887 294.948 473.298L293.587 472.835L294.362 472.305C294.803 472.385 297.221 472.857 297.552 472.384C300.556 468.088 303.436 463.639 306.809 459.62C307.145 463.759 300.744 474.556 301.528 479.996L302.315 480.396C304.915 488.241 301.77 487.294 302.361 492.226C303.452 501.327 305.623 499.699 304.152 509.508L304.446 510.085C305.598 512.305 306.736 513.965 308.241 515.96C310.35 518.756 309.447 520.642 309.529 523.719C312.246 528.897 315.195 528.294 315.015 532.887C315.305 534.259 315.509 535.815 316.188 537.003L319.953 538.111C321.194 540.022 322.854 542.417 323.935 544.361C326.906 546.905 326.149 545.768 328.511 549.644C332.281 555.829 339.668 561.928 347.42 559.831C349.819 555.486 354.647 558.34 355.214 556.794C359.472 545.19 336.033 537.177 336.911 523.782C339.95 524.489 340.448 525.09 342.733 527.123C345.16 527.366 345.61 527.001 347.269 528.219L347.034 528.646C345.268 528.575 344.738 528.193 343.783 529.049C344.036 530.613 343.659 530.02 344.881 530.927C347.025 530.678 349.23 528.929 351.098 527.679C349.884 531.337 346.741 530.876 345.806 533.231C347.524 534.045 347.664 534.052 349.548 534.471L351.289 533.788C350.784 535.22 351.186 534.601 349.926 535.627C348.17 535.731 349.037 535.874 347.314 534.862C348.168 536.522 347.562 535.85 349.343 536.806C351.417 536.568 350.541 536.957 352.103 535.683L352.468 534.394L352.345 535.244C353.639 537.811 353.704 539.198 355.883 541.602C358.642 544.647 368.581 545.655 369.41 549.701C365.252 552.928 362.56 555.333 359.399 559.559C358.967 560.136 359.048 560.014 358.483 560.472L357.841 561.204C356.531 562.669 354.004 564.438 353.123 565.637C351.683 567.596 349.018 573.326 347.646 575.249C344.24 580.021 332.546 597.338 328.397 599.335C323.832 593.956 323.431 598.702 315.593 596.49C317.557 594.651 319.434 594.54 321.433 593.227C325.426 590.604 334.858 583.575 336.632 579.494L336.221 578.454C333.532 577.516 327.914 579.29 325.09 580.194C321.191 581.442 320.782 579.266 317.33 579.627C312.938 580.087 309.261 579.572 304.918 580.408C300.067 581.048 284.003 577.022 279.475 574.565C275.555 572.437 271.243 573.735 269.379 572.535C267.57 571.371 258.622 567.629 257.665 566.778C255.756 565.081 241.969 556.491 241.521 555.404C243.969 551.879 234.936 549.155 232.644 543.932C232.96 542.314 233.019 542.843 232.776 541.305L230.655 540.354C229.894 537.653 231.346 535.103 232.408 532.607C233.085 531.016 232.189 530.476 231.197 528.286C232.857 524.266 233.057 523.326 233.764 519.009C234.673 519.848 236.435 520.272 237.632 520.481C242.521 518.411 238.696 509.765 241.182 505.104L241.043 502.219C241.671 500.101 243.193 496.726 244.081 494.587C244.998 495.881 244.425 495.618 245.674 495.832C246.389 495.961 247.109 496.07 247.83 496.158C250.296 496.046 249.939 495.685 251.738 496.721C252.014 497.425 252.26 497.923 252.417 498.655C252.803 496.61 253.366 495.742 254.302 493.847L254.934 492.233L255.56 492.377L256.495 493.967C259.82 493.352 261.82 489.107 266.18 489.881C268.362 491.462 268.081 491.759 268.321 494.418C268.499 492.394 268.144 492.213 269.235 491.04C270.314 490.033 270.868 489.107 271.698 487.903Z"/><path fill="#2C9908" transform="scale(1.04379 1.04379)" d="M269.052 527.219C271.418 527.575 269.98 527.58 272.701 525.978L273.005 526.569L272.717 527.465C273.7 530.121 274.678 531.808 277.034 533.405C278.844 533.705 278.863 533.83 280.622 533.126C283.653 530.336 283.043 525.528 281.79 521.99L282.286 521.132C285.198 521.381 288.543 525.925 291.78 527.474C296.242 529.61 299.005 528.868 302.897 530.842C305.34 528.28 306.333 525.451 309.529 523.719C312.246 528.897 315.195 528.294 315.015 532.887C315.305 534.259 315.509 535.815 316.188 537.003L319.953 538.111C321.194 540.022 322.854 542.417 323.935 544.361C326.906 546.905 326.149 545.768 328.511 549.644C332.281 555.829 339.668 561.928 347.42 559.831L347.277 560.414C344.942 560.921 344.421 563.229 342.98 563.902C339.248 565.645 332.896 568.897 329.222 570.107C328.06 569.033 329.094 568.731 328.311 566.182C327.226 566.451 326.39 566.989 325.377 567.513C325.6 568.301 325.497 568.019 325.782 568.732L325.975 569.207C324.39 569.83 321.765 567.072 318.822 567.013C318.197 567.935 317.549 568.842 316.88 569.733C312.129 569.233 306.027 570.108 301.693 569.217C301.757 569.231 295.029 564.848 293.255 564.088C291.616 565.864 289.656 568.093 287.329 567.996C280.752 567.723 273.528 557.708 269.568 553.342C268.667 552.349 267.297 552.827 266.169 553.077C266.367 552.288 266.58 551.77 266.916 551.041L266.147 549.659C265.939 544.856 262.239 536.727 260.981 530.95C259.023 529.771 258.539 529.877 258.26 527.745C258.818 526.061 259.93 525.627 261.456 524.624C262.221 526.156 262.34 526.525 263.53 527.83C265.739 528.498 266.385 527.156 269.052 527.219Z"/><path fill="#69CE07" transform="scale(1.04379 1.04379)" d="M302.897 530.842C305.34 528.28 306.333 525.451 309.529 523.719C312.246 528.897 315.195 528.294 315.015 532.887L314.854 535.969L314.267 536.476C308.405 533.557 310.745 532.518 302.897 530.842Z"/><path fill="#3CAB08" transform="scale(1.04379 1.04379)" d="M316.188 537.003L319.953 538.111C321.194 540.022 322.854 542.417 323.935 544.361C323.762 545.059 323.528 545.548 323.26 546.219C319.165 545.243 318.277 544.25 314.176 545.469L313.747 544.808L314.157 543.364L314.777 543.117C314.621 544.303 314.625 543.743 314.721 544.794C317.106 544.62 318.784 544.798 320.186 542.721C320.141 540.881 319.928 540.814 318.98 539.266C317.811 538.572 316.791 538.173 316.188 537.003Z"/><path fill="#69CE07" transform="scale(1.04379 1.04379)" d="M274.489 545.538C274.208 542.57 273.465 537.966 275.014 535.416C278.866 534.279 281.93 538.44 284.897 537.949L285.585 536.221L286.132 536.251C287.895 537.73 287.335 537.151 288.068 539.717C289.324 540.926 292.827 541.212 295.336 542.31C296.635 543.868 296.328 542.981 296.177 545.098L298.024 547.143C298.903 549.539 299.098 549.327 301.417 550.85L301.623 551.594C300.379 552.34 300.544 551.897 300.283 552.834C302.157 553.065 303.037 552.972 304.945 552.864L305.371 553.457C302.855 556.852 296.058 555.19 292.202 556.336L290.519 556.186C289.031 554.258 288.794 554.052 286.715 552.781C286.508 554.56 286.315 557.094 285.277 558.325L284.297 558.186C281.06 554.029 282.758 549.4 276.838 547.925C275.598 547.616 275.256 546.615 274.489 545.538Z"/><path fill="#69CE07" transform="scale(1.04379 1.04379)" d="M289.447 551.05C290.063 550.857 290.641 550.622 291.245 550.393C292.647 546.94 294.373 548.511 298.024 547.143C298.903 549.539 299.098 549.327 301.417 550.85L301.623 551.594C300.379 552.34 300.544 551.897 300.283 552.834C302.157 553.065 303.037 552.972 304.945 552.864L305.371 553.457C302.855 556.852 296.058 555.19 292.202 556.336L290.519 556.186C289.031 554.258 288.794 554.052 286.715 552.781C287.311 552.059 288.543 551.542 289.447 551.05Z"/><path fill="#3CAB08" transform="scale(1.04379 1.04379)" d="M289.447 551.05C291.317 552.718 291.633 553.855 292.202 556.336L290.519 556.186C289.031 554.258 288.794 554.052 286.715 552.781C287.311 552.059 288.543 551.542 289.447 551.05Z"/><path fill="#DBFD83" transform="scale(1.04379 1.04379)" d="M254.302 493.847L254.934 492.233L255.56 492.377L256.495 493.967C259.82 493.352 261.82 489.107 266.18 489.881C268.362 491.462 268.081 491.759 268.321 494.418C266.677 499.92 266.181 502.492 262.33 506.863C261.533 514.554 260.182 514.271 253.278 516.898C249.005 514.432 245.662 513.462 247.109 507.687C246.746 506.511 246.773 505.877 246.691 504.65C247.446 500.57 249.812 500.616 247.83 496.158C250.296 496.046 249.939 495.685 251.738 496.721C252.014 497.425 252.26 497.923 252.417 498.655C252.803 496.61 253.366 495.742 254.302 493.847Z"/><path fill="#69CE07" transform="scale(1.04379 1.04379)" d="M247.83 496.158C250.296 496.046 249.939 495.685 251.738 496.721C252.014 497.425 252.26 497.923 252.417 498.655C251.06 501.121 250.464 502.192 248.725 504.468C248.757 506.207 249.042 508.25 248.392 509.7C247.721 508.84 247.619 508.656 247.109 507.687C246.746 506.511 246.773 505.877 246.691 504.65C247.446 500.57 249.812 500.616 247.83 496.158Z"/><path fill="#2C9908" transform="scale(1.04379 1.04379)" d="M261.798 556.588C255.428 558.232 250.792 552.056 247.134 547.598C243.093 542.674 237.254 537.062 238.745 530.252C239.258 527.909 239.324 524.859 241.457 523.223C242.126 523.239 242.917 523.109 243.241 523.534C247.586 529.226 248.479 540.376 254.077 544.656C255.459 545.712 255.494 545.585 256.537 547.045C256.412 547.835 256.229 548.533 255.986 549.291L256.65 549.849C256.996 548.594 256.849 548.877 257.471 547.751L258.208 548.342C258.647 550.016 258.719 551.302 260.051 552.279C261.739 552.494 260.905 552.569 262.612 551.841L264.047 552.392L263.596 553.081C262.954 554.074 262.109 555.458 261.798 556.588Z"/><path fill="#69CE07" transform="scale(1.04379 1.04379)" d="M261.456 524.624C262.393 523.614 263.286 523.616 264.53 522.705C266.428 522.909 265.592 522.567 267.095 523.845C267.508 525.713 267.563 524.789 266.694 526.688L269.052 527.219C266.385 527.156 265.739 528.498 263.53 527.83C262.34 526.525 262.221 526.156 261.456 524.624Z"/><path fill="#69CE07" transform="scale(1.04379 1.04379)" d="M262.612 551.841C262.165 550.426 261.655 549.578 260.682 548.463L261.092 547.712C262.966 547.752 263.536 548.715 265.209 550.115L266.147 549.659L266.916 551.041C266.58 551.77 266.367 552.288 266.169 553.077L265.649 553.759C263.773 553.986 263.245 555.022 261.798 556.588C262.109 555.458 262.954 554.074 263.596 553.081L264.047 552.392L262.612 551.841Z"/><path fill="#7DDD09" transform="scale(1.04379 1.04379)" d="M388.033 417.481C389.136 418.449 392.553 421.938 393.296 422.274C397.385 424.117 402.22 421.731 405.733 425.028C405.78 427.341 402.432 430.494 401.441 432.855C400.014 436.248 399.865 440.012 398.509 443.501C397.388 446.218 393.948 449.024 392.846 451.565C390.108 457.883 389.148 465.919 390.358 472.7C390.559 473.824 392.883 475.95 393.711 476.826C392.779 479.444 391.918 480.956 391.95 483.759L392.856 487.618C401.015 500.936 394.563 504.322 410.327 515.597C403.37 525.112 384.403 536.38 374.509 543.515C372.451 545 371.825 549.185 369.41 549.701C368.581 545.655 358.642 544.647 355.883 541.602C353.704 539.198 353.639 537.811 352.345 535.244L352.468 534.394L352.103 535.683C350.541 536.957 351.417 536.568 349.343 536.806C347.562 535.85 348.168 536.522 347.314 534.862C349.037 535.874 348.17 535.731 349.926 535.627C351.186 534.601 350.784 535.22 351.289 533.788L349.548 534.471C347.664 534.052 347.524 534.045 345.806 533.231C346.741 530.876 349.884 531.337 351.098 527.679C349.23 528.929 347.025 530.678 344.881 530.927C343.659 530.02 344.036 530.613 343.783 529.049C344.738 528.193 345.268 528.575 347.034 528.646L347.269 528.219C345.61 527.001 345.16 527.366 342.733 527.123C340.448 525.09 339.95 524.489 336.911 523.782C332.43 519.313 335.608 518.575 330.972 514.918C329.793 509.558 327.508 506.541 326.859 503.274C326.007 498.986 327.562 490.738 324.692 486.018C323.019 483.266 324.982 479.594 326.157 476.356C325.905 475.553 325.076 472.817 325.23 472.047C326.023 468.057 327.629 454.408 329.047 451.519C330.842 447.864 334.677 446 336.07 440.434C338.06 442.733 337.987 444.357 340.516 446.56L341.502 446.779C342.824 444.216 341.817 441.881 344.609 440.524C346.725 438.466 348.49 436.783 350.391 434.516C354.143 431.228 357.546 432.086 359.482 428.856C364.499 429.069 369.328 427.778 372.863 424.008C375.379 423.767 376.48 424.188 378.87 425.189C379.865 424.078 379.786 423.849 380.348 422.419C381.648 422.095 382.058 422.187 382.916 421.241L382.701 420.63L380.851 421.003L380.293 418.569C381.989 416.978 385.423 419.261 388.033 417.481ZM347.44 502.987C350.692 502.185 350.795 503.693 353.796 504.293C354.791 504.491 357.75 504.17 359.036 504.106L360.831 504.111C362.701 504.898 361.777 504.824 363.694 504.438C364.218 503.272 364.463 503.295 365.275 502.414C367.262 500.259 365.126 495.587 363.007 494.215C362.021 493.577 361.3 493.524 360.214 493.753L359.356 496.077L356.224 493.095C356.585 489.353 355.105 487.714 351.443 487.734C350.328 486.045 349.232 483.86 347.484 483.062C346.171 484.173 343.795 485.848 343.32 487.333C344.04 487.853 343.622 487.724 344.599 487.624C345.642 489.673 345.092 490.185 344.966 492.226C344.755 495.65 346.736 499.492 347.44 502.987ZM384.631 495.421C384.637 493.741 384.592 493.73 384.146 492.087C381.896 490.895 382.485 490.775 380.349 490.971C380.063 492.899 382.24 493.536 383.188 495.571C384.005 495.587 383.935 495.694 384.631 495.421ZM360.974 475.227C360.755 474.251 360.792 474.765 360.907 473.681L360.392 473.17C359.659 475.15 361.607 475.671 360.257 477.422C358.541 477.73 358.652 477.677 356.979 477.114C357.331 478.065 357.38 478.161 357.918 479.021C357.164 480.254 357.494 479.858 356.369 480.758L356.533 481.385C358.188 481.888 359.612 482.525 361.194 481.819C361.81 478.66 362.099 478.383 360.974 475.227ZM375.056 481.652C375.038 483.471 375.228 487.86 374.477 489.228C372.766 490.342 372.201 490.482 371.417 492.36C372.968 493.479 373.283 493.498 375.061 494.015C375.728 492.585 376.755 489.231 377.419 487.485C377.737 484.118 378.577 487.635 378.762 484.131L377.099 482.709L377.201 481.716L379.024 482.063C379.507 480.936 379.465 481.522 379.104 480.303C377.709 480.034 376.428 480.963 375.056 481.652Z"/><path fill="#9AEE1B" fill-opacity="0.98823529" transform="scale(1.04379 1.04379)" d="M347.484 483.062C349.232 483.86 350.328 486.045 351.443 487.734C352.589 490.703 353.419 491.564 356.224 493.095L359.356 496.077C360.877 496.861 362.056 496.809 363.718 496.918L364.711 497.587C364.549 498.137 361.631 502.493 360.831 504.111L359.036 504.106C357.75 504.17 354.791 504.491 353.796 504.293C350.795 503.693 350.692 502.185 347.44 502.987C346.736 499.492 344.755 495.65 344.966 492.226C345.092 490.185 345.642 489.673 344.599 487.624C343.622 487.724 344.04 487.853 343.32 487.333C343.795 485.848 346.171 484.173 347.484 483.062Z"/><path fill="#9AEE1B" fill-opacity="0.98823529" transform="scale(1.04379 1.04379)" d="M375.056 481.652C376.428 480.963 377.709 480.034 379.104 480.303C379.465 481.522 379.507 480.936 379.024 482.063L377.201 481.716L377.099 482.709L378.762 484.131C378.577 487.635 377.737 484.118 377.419 487.485C376.755 489.231 375.728 492.585 375.061 494.015C373.283 493.498 372.968 493.479 371.417 492.36C372.201 490.482 372.766 490.342 374.477 489.228C375.228 487.86 375.038 483.471 375.056 481.652Z"/><path fill="#69CE07" fill-opacity="0.98823529" transform="scale(1.04379 1.04379)" d="M359.356 496.077L360.214 493.753C361.3 493.524 362.021 493.577 363.007 494.215C365.126 495.587 367.262 500.259 365.275 502.414C364.463 503.295 364.218 503.272 363.694 504.438C361.777 504.824 362.701 504.898 360.831 504.111C361.631 502.493 364.549 498.137 364.711 497.587L363.718 496.918C362.056 496.809 360.877 496.861 359.356 496.077Z"/><path fill="#69CE07" fill-opacity="0.98823529" transform="scale(1.04379 1.04379)" d="M361.194 481.819C359.612 482.525 358.188 481.888 356.533 481.385L356.369 480.758C357.494 479.858 357.164 480.254 357.918 479.021C357.38 478.161 357.331 478.065 356.979 477.114C358.652 477.677 358.541 477.73 360.257 477.422C361.607 475.671 359.659 475.15 360.392 473.17L360.907 473.681C360.792 474.765 360.755 474.251 360.974 475.227C362.099 478.383 361.81 478.66 361.194 481.819Z"/><path fill="#69CE07" fill-opacity="0.98823529" transform="scale(1.04379 1.04379)" d="M351.443 487.734C355.105 487.714 356.585 489.353 356.224 493.095C353.419 491.564 352.589 490.703 351.443 487.734Z"/><defs><linearGradient id="gradient_0" gradientUnits="userSpaceOnUse" x1="387.32944" y1="539.31757" x2="367.08069" y2="496.43311"><stop offset="0" stop-color="#289807"/><stop offset="1" stop-color="#42B10A"/></linearGradient></defs><path fill="url(#gradient_0)" transform="scale(1.04379 1.04379)" d="M384.094 485.689L385.281 485.318C387.008 483.063 389.404 483.583 391.95 483.759L392.856 487.618C401.015 500.936 394.563 504.322 410.327 515.597C403.37 525.112 384.403 536.38 374.509 543.515C372.451 545 371.825 549.185 369.41 549.701C368.581 545.655 358.642 544.647 355.883 541.602C353.704 539.198 353.639 537.811 352.345 535.244L352.468 534.394L352.103 535.683C350.541 536.957 351.417 536.568 349.343 536.806C347.562 535.85 348.168 536.522 347.314 534.862C349.037 535.874 348.17 535.731 349.926 535.627C351.186 534.601 350.784 535.22 351.289 533.788L349.548 534.471C347.664 534.052 347.524 534.045 345.806 533.231C346.741 530.876 349.884 531.337 351.098 527.679C348.886 524.967 347.699 525.285 346.066 521.449C348.921 519.048 350.085 522.676 354.069 518.21C356.693 521.664 361.556 525.546 365.978 526.189C366.828 523.693 367.062 522.539 368.59 520.434C367.791 519.219 361.466 513.065 360.212 511.988C358.633 509.259 358.71 507.642 359.036 504.106L360.831 504.111C362.701 504.898 361.777 504.824 363.694 504.438C369.638 506.037 372.493 512.342 377.157 512.847C378.933 512.254 379.657 510.759 380.766 509.171C378.966 503.646 377.528 501.851 374.04 497.225C373.335 496.29 374.533 494.878 375.061 494.015C375.728 492.585 376.755 489.231 377.419 487.485C379.669 486.997 381.879 486.323 384.094 485.689ZM384.146 492.087C381.896 490.895 382.485 490.775 380.349 490.971C380.063 492.899 382.24 493.536 383.188 495.571C384.005 495.587 383.935 495.694 384.631 495.421C384.637 493.741 384.592 493.73 384.146 492.087Z"/><path fill="#69CE07" fill-opacity="0.98823529" transform="scale(1.04379 1.04379)" d="M384.631 495.421C383.935 495.694 384.005 495.587 383.188 495.571C382.24 493.536 380.063 492.899 380.349 490.971C382.485 490.775 381.896 490.895 384.146 492.087C384.592 493.73 384.637 493.741 384.631 495.421Z"/><path fill="#68CD04" transform="scale(1.04379 1.04379)" d="M384.094 485.689L385.281 485.318C387.008 483.063 389.404 483.583 391.95 483.759L392.856 487.618C390.467 488.933 387.683 487.239 385.426 486.182C384.864 489.034 383.664 489.325 384.146 492.087C381.896 490.895 382.485 490.775 380.349 490.971C380.063 492.899 382.24 493.536 383.188 495.571C384.005 495.587 383.935 495.694 384.631 495.421C384.13 496.87 384.507 496.186 382.768 497.219C378.728 494.36 380.652 494.137 375.061 494.015C375.728 492.585 376.755 489.231 377.419 487.485C379.669 486.997 381.879 486.323 384.094 485.689Z"/><path fill="#3CAB08" transform="scale(1.04379 1.04379)" d="M368.59 520.434C369.44 521.385 370.153 522.147 371.062 523.061L370.971 523.963C369.653 524.363 370.251 524.188 368.415 523.375C366.625 529.099 374.921 527.099 375.618 529.882C372.684 531.544 367.28 534.342 365.259 530.196C365.672 526.677 366.471 527.915 368.33 525.89L367.868 525.177C365.762 525.809 367.824 526.49 365.978 526.189C366.828 523.693 367.062 522.539 368.59 520.434Z"/><path fill="#DBFD83" transform="scale(1.04379 1.04379)" d="M372.863 424.008C375.379 423.767 376.48 424.188 378.87 425.189C383.431 428.244 387.927 432.935 384.146 438.463C383.098 439.995 378.748 442.564 377.346 442.247C368.951 440.35 370.223 439.389 363.955 447.019C357.439 444.914 357.081 446.464 355.161 452.354C353.099 450.248 351.644 450.088 348.856 449.371C346.478 446.184 344.539 444.434 344.609 440.524C346.725 438.466 348.49 436.783 350.391 434.516C354.143 431.228 357.546 432.086 359.482 428.856C364.499 429.069 369.328 427.778 372.863 424.008Z"/><path fill="#DBFD83" transform="scale(1.04379 1.04379)" d="M367.425 472.053L371.472 473.595C372.532 475.947 374.181 479.325 375.056 481.652C375.038 483.471 375.228 487.86 374.477 489.228C372.766 490.342 372.201 490.482 371.417 492.36C368.14 487.917 362.673 488.074 361.194 481.819C361.81 478.66 362.099 478.383 360.974 475.227L367.425 472.053Z"/><path fill="#69CE07" transform="scale(1.04379 1.04379)" d="M360.212 511.988C361.466 513.065 367.791 519.219 368.59 520.434C367.062 522.539 366.828 523.693 365.978 526.189C361.556 525.546 356.693 521.664 354.069 518.21C350.085 522.676 348.921 519.048 346.066 521.449C345.078 518.461 342.879 521.023 343.045 515.22L343.668 516.062L345.009 516.236C346.995 515.509 348.552 513.899 349.824 513.717L351.328 514.989C351.664 515.631 352.014 516.508 352.692 516.803C356.711 518.554 357.671 521.969 362.155 522.185C362.155 521.724 362.16 521.263 362.172 520.802C362.236 518.824 362.135 518.763 363.169 517.811C364.31 518.219 364.02 518.156 365.135 518.317C365.027 517.524 360.554 514.164 360.212 511.988Z"/><path fill="#68CD04" transform="scale(1.04379 1.04379)" d="M347.44 502.987C348.031 505.436 349.111 504.847 350.022 506.909L349.102 506.955C344.806 504.461 347.55 501.99 345.104 498.712C344.38 499.313 344.795 499.152 343.863 499.204C341.375 496.235 341.541 486.742 343.916 483.792C345.744 483.282 345.734 482.769 347.484 483.062C346.171 484.173 343.795 485.848 343.32 487.333C344.04 487.853 343.622 487.724 344.599 487.624C345.642 489.673 345.092 490.185 344.966 492.226C344.755 495.65 346.736 499.492 347.44 502.987Z"/><path fill="#9AEE1B" transform="scale(1.04379 1.04379)" d="M348.856 449.371C351.644 450.088 353.099 450.248 355.161 452.354C353.258 452.386 353.077 451.307 350.352 450.829L350.253 451.835C348.449 453.553 346.057 453.868 344.064 452.201C343.764 450.587 343.67 451.346 344.372 449.846C346.68 448.858 346.705 450.028 348.856 449.371Z"/><path fill="#7DDD09" transform="scale(1.04379 1.04379)" d="M244.081 494.587C246.482 489.096 253.292 477.017 258.807 475.422C261.435 474.662 262.64 470.086 263.24 467.719C264.865 461.307 265.576 465.911 268.828 462.81C277.573 451.643 289.289 442.091 302.263 436.491C307.246 434.341 317.822 428.661 321.575 429.852L321.809 431.013C320.69 434.164 315.805 438.453 315.437 440.008C312.83 450.992 302.747 469.925 302.315 480.396L301.528 479.996C300.744 474.556 307.145 463.759 306.809 459.62C303.436 463.639 300.556 468.088 297.552 472.384C297.221 472.857 294.803 472.385 294.362 472.305L293.587 472.835L294.948 473.298C294.675 475.887 292.852 475.179 291.674 477.818C290.111 478.183 283.973 474.429 283.444 477.244C282.192 483.906 280.887 489.207 271.698 487.903C268.884 484.434 269.701 486.652 267.06 481.428L266.347 481.303L265.778 482.323C265.457 484.425 264.929 485.484 265.663 487.208C266.671 487.598 267.621 488.024 268.563 488.554C268.912 489.589 269.057 489.971 269.235 491.04C268.144 492.213 268.499 492.394 268.321 494.418C268.081 491.759 268.362 491.462 266.18 489.881C261.82 489.107 259.82 493.352 256.495 493.967L255.56 492.377L254.934 492.233L254.302 493.847C253.366 495.742 252.803 496.61 252.417 498.655C252.26 497.923 252.014 497.425 251.738 496.721C249.939 495.685 250.296 496.046 247.83 496.158C247.109 496.07 246.389 495.961 245.674 495.832C244.425 495.618 244.998 495.881 244.081 494.587Z"/><path fill="#69CE07" transform="scale(1.04379 1.04379)" d="M254.302 493.847C252.89 492.273 252.386 491.39 252.735 489.163C254.959 485.353 260.762 486.011 264.758 484.631L265.778 482.323C265.457 484.425 264.929 485.484 265.663 487.208C266.671 487.598 267.621 488.024 268.563 488.554C268.912 489.589 269.057 489.971 269.235 491.04C268.144 492.213 268.499 492.394 268.321 494.418C268.081 491.759 268.362 491.462 266.18 489.881C261.82 489.107 259.82 493.352 256.495 493.967L255.56 492.377L254.934 492.233L254.302 493.847Z"/><path fill="#DBFD83" transform="scale(1.04379 1.04379)" d="M301.695 447.443C302.606 447.457 302.646 447.528 303.546 447.741C304.512 449.264 304.836 449.544 304.926 451.373C302.438 456.523 305.124 460.162 302.801 463.342C301.82 464.686 297.872 464.196 295.656 466.803L296.012 467.274C297.289 467.041 298.568 466.817 299.848 466.601C300.041 468.633 298.191 471.032 296.325 471.391L295.796 469.778C293.344 471.361 291.417 473.062 289.202 474.935C285.856 475.062 285.8 471.909 282.194 473.441L281.991 474.149L283.811 474.746C282.669 476.35 281.857 477.633 280.846 479.323L281.967 480.162C282.311 481.36 282.297 480.745 281.685 482.036C279.773 483.275 277.423 483.568 275.144 484.065C273.067 481.197 271.548 479.828 272.257 476.149C274.786 463.034 292.166 453.903 301.695 447.443Z"/><path fill="#68CD04" transform="scale(1.04379 1.04379)" d="M529.462 526.295L533.967 522.576C540.664 527.754 545.279 530.732 552.386 535.321C557.987 538.938 559.869 541.962 566.801 545.254C566.075 548.041 567.034 550.987 566.175 552.568C562.83 552.995 563.865 550.579 560.306 555.535C558.873 557.531 557.351 559.524 554.788 559.957C551.856 558.014 550.603 555.629 548.264 553.274C540.048 544.999 535.57 535.888 529.462 526.295Z"/><path fill="#3CAB08" transform="scale(1.04379 1.04379)" d="M337.357 431.208C350.627 420.642 360.152 414.763 377.398 416.986C380.685 417.409 384.557 416.907 388.033 417.481C385.423 419.261 381.989 416.978 380.293 418.569L380.851 421.003L382.701 420.63L382.916 421.241C382.058 422.187 381.648 422.095 380.348 422.419C379.786 423.849 379.865 424.078 378.87 425.189C376.48 424.188 375.379 423.767 372.863 424.008C369.328 427.778 364.499 429.069 359.482 428.856C357.546 432.086 354.143 431.228 350.391 434.516C348.49 436.783 346.725 438.466 344.609 440.524C341.817 441.881 342.824 444.216 341.502 446.779L340.516 446.56C337.987 444.357 338.06 442.733 336.07 440.434C336.111 438.795 335.858 439.423 337.059 438.092L337.398 437.722C336.664 434.653 336.562 434.238 337.357 431.208Z"/><path fill="#69CE07" transform="scale(1.04379 1.04379)" d="M359.482 428.856L358.39 426.437C359.066 421.59 369.113 423.578 372.863 424.008C369.328 427.778 364.499 429.069 359.482 428.856Z"/><path fill="#68CD04" transform="scale(1.04379 1.04379)" d="M350.391 434.516C350.107 431.121 349.609 428.901 350.288 425.612L350.927 425.209C353.09 426.723 356.766 429.108 359.482 428.856C357.546 432.086 354.143 431.228 350.391 434.516Z"/><path fill="#69CE07" transform="scale(1.04379 1.04379)" d="M504.352 543.534L504.751 543.81C509.582 547.186 507.727 548.525 514.378 546.481C516.341 549.445 517.795 551.773 519.53 554.871C516.146 559.584 508.871 564.828 503.263 566.445C503.15 557.208 503.583 552.678 504.352 543.534Z"/><path fill="#68CD04" transform="scale(1.04379 1.04379)" d="M497.023 539.766L502.979 538.862C503.225 540.971 503.235 541.759 504.352 543.534C503.583 552.678 503.15 557.208 503.263 566.445L498.492 568.689C497.552 564.604 499.303 558.38 498.932 554.205C498.469 548.999 496.689 545.211 497.023 539.766Z"/><path fill="#7DDD09" transform="scale(1.04379 1.04379)" d="M502.979 538.862C505.072 538.325 506.838 538.754 509.013 539.031C511.359 541.768 512.589 543.276 514.378 546.481C507.727 548.525 509.582 547.186 504.751 543.81L504.352 543.534C503.235 541.759 503.225 540.971 502.979 538.862Z"/><path fill="#7DDD09" transform="scale(1.04379 1.04379)" d="M505.043 401.966C509.085 396.407 510.958 389.092 514.962 383.391C516.583 381.083 518.939 379.901 520.77 377.804C523.584 373.709 523.498 370.874 527.9 367.487C530.25 365.678 537.547 363.899 537.291 361.673L536.153 360.616C541.097 355.063 551.971 355.895 556.167 350.172C560.607 349.165 566.371 348.844 568.696 344.839C571.735 344.632 575.05 345.563 577.153 345.307C580.703 344.874 584.611 343.373 588.496 342.985C592.402 342.596 598.276 344.609 601.355 344.547C610.075 344.372 618.026 344.667 626.712 345.745C629.73 346.12 635.404 349.537 638.479 350.814C639.071 350.425 639.662 350.036 640.254 349.647C652.781 353.048 670.23 360.781 680.63 368.463C685.412 371.995 684.49 375.74 690.839 377.228C699.533 389.315 703.114 393.489 706.258 408.582L704.251 413.831L706.575 419.086C705.755 420.768 705.271 421.613 704.24 423.126C701.699 426.702 700.451 432.357 697.827 435.776C695.865 438.332 692.285 443.912 689.699 445.799C684.196 449.817 678.742 455.054 673.45 459.146C667.644 463.636 659.114 466.862 652.766 470.583C645.925 474.312 639.641 473.923 633.442 477.751C626.896 481.794 615.24 481.542 607.727 482.391C604.509 482.755 596.43 485.098 593.779 484.947C587.208 484.572 579.667 482.77 572.911 482.461C571.421 482.393 570.364 481.543 569.217 480.655C567.064 480.919 562.518 481.73 560.788 480.989L560.038 479.935C557.72 479.14 554.2 479.893 551.657 480.218C549.171 478.039 546.246 476.157 542.992 475.402L542.535 474.638C539.329 471.654 536.748 474.344 534.447 468.73C532.237 467.721 531.382 469.084 529.42 468.135C527.864 464.963 526.901 463.325 523.986 461.271C520.832 459.048 521.949 458.191 517.996 458.529C516.167 456.649 516.198 453.318 515.125 451.787C509.621 443.93 507.843 444.959 507.989 435.27C506.006 433.171 505.596 432.51 504.098 430.018C504.819 427.931 507.568 421.582 507.71 420.3C504.758 417.043 505.009 406.655 505.043 401.966ZM573.031 460.512C573.856 462.089 574.032 462.594 575.299 463.905C576.981 461.008 575.157 460.947 576.498 459.947C577.796 460.592 578.228 460.728 579.659 460.958C581.666 464.449 577.136 462.368 583.195 464.411L583.584 464.54C588.561 466.237 588.865 464.791 593.491 465.637C588.487 459.576 582.609 458.805 575.274 457.411C572.901 456.96 572.786 456.728 570.507 457.742C572.847 460.651 572.448 457.272 573.031 460.512ZM555.654 456.079C557.804 456.145 561.056 456.166 563.023 456.884C564.24 456.788 565.553 456.587 566.724 456.755C565.177 453.264 564.671 452.127 560.653 451.722L558.449 451.487C557.094 452.598 556.228 453.302 555.016 454.553L554.955 455.332L555.654 456.079ZM675.924 417.459C677.227 413.413 674.55 411.211 676.18 408.072C674.408 409.701 673.809 410.027 672.862 412.15C672.902 415.151 674.82 415.684 675.924 417.459Z"/><path fill="#68CD04" fill-opacity="0.98823529" transform="scale(1.04379 1.04379)" d="M570.507 457.742C572.786 456.728 572.901 456.96 575.274 457.411C582.609 458.805 588.487 459.576 593.491 465.637C588.865 464.791 588.561 466.237 583.584 464.54L583.195 464.411C577.136 462.368 581.666 464.449 579.659 460.958C578.228 460.728 577.796 460.592 576.498 459.947C575.157 460.947 576.981 461.008 575.299 463.905C574.032 462.594 573.856 462.089 573.031 460.512C572.448 457.272 572.847 460.651 570.507 457.742Z"/><path fill="#69CE07" fill-opacity="0.98823529" transform="scale(1.04379 1.04379)" d="M558.449 451.487L560.653 451.722C564.671 452.127 565.177 453.264 566.724 456.755C565.553 456.587 564.24 456.788 563.023 456.884C561.056 456.166 557.804 456.145 555.654 456.079L554.955 455.332L555.016 454.553C556.228 453.302 557.094 452.598 558.449 451.487Z"/><defs><linearGradient id="gradient_1" gradientUnits="userSpaceOnUse" x1="572.8645" y1="444.3085" x2="597.76349" y2="486.92065"><stop offset="0" stop-color="#44B208"/><stop offset="1" stop-color="#2C9907"/></linearGradient></defs><path fill="url(#gradient_1)" transform="scale(1.04379 1.04379)" d="M550.055 446.071C551.637 447.209 551.531 447.559 553.1 447.544C553.468 446.853 553.788 446.276 554.183 445.589C556.97 447.285 554.005 449.118 558.449 451.487C557.094 452.598 556.228 453.302 555.016 454.553L554.955 455.332L555.654 456.079C557.804 456.145 561.056 456.166 563.023 456.884C564.24 456.788 565.553 456.587 566.724 456.755L568.684 456.209C569.703 456.824 569.689 456.859 570.507 457.742C572.847 460.651 572.448 457.272 573.031 460.512C573.856 462.089 574.032 462.594 575.299 463.905C576.981 461.008 575.157 460.947 576.498 459.947C577.796 460.592 578.228 460.728 579.659 460.958C581.666 464.449 577.136 462.368 583.195 464.411L583.584 464.54C588.561 466.237 588.865 464.791 593.491 465.637C600.199 467.748 599.142 465.569 605.887 465.259C606.337 465.781 606.788 466.303 607.239 466.826C609.435 466.861 613.669 467.059 615.709 466.721C619.882 466.028 628.987 460.151 632.844 462.362L632.631 463.427C633.774 464.104 633.178 463.893 634.487 463.894C634.421 465.193 634.524 464.746 633.998 465.982C633.419 467.168 633.355 468.037 631.998 468.321C624.67 469.856 617.454 471.677 610.583 474.838C608.651 475.229 606.426 475.623 604.653 476.454C601.153 478.096 600.61 476.713 597.532 475.489C594.754 476.335 591.229 477.731 588.525 476.921C587.636 475.677 587.831 476.359 587.981 474.79C589.575 473.785 589.751 474.718 592.187 474.132L592.193 473.341C590.087 472.42 588.178 474.32 585.732 473.032C585.199 472.752 583.176 472.284 582.511 472.159L582.129 472.095C578.856 470.993 572.723 473.39 569.864 473.085C568.155 472.903 563.047 470.994 560.673 470.424C560.179 470.743 558.383 472.539 559.195 472.263C555.429 473.542 550.953 468.802 552.013 475.836L550.764 476.583L550.687 477.61C552.869 479.19 555.982 478.707 558.713 478.487C559.876 479.222 559.495 478.699 560.038 479.935C557.72 479.14 554.2 479.893 551.657 480.218C549.171 478.039 546.246 476.157 542.992 475.402L542.535 474.638C542.478 473.335 542.68 473.9 541.784 472.968C541.256 471.143 541.3 468.189 542.268 466.39L543.659 466.872C544.936 465.603 547.407 463.621 546.95 461.767C543.978 461.729 542.231 461.949 539.332 461.148C541.477 461.049 548.755 461.039 550.313 460.546L549.933 458.432C550.363 457.49 550.947 455.004 551.027 454.885L552.728 455.038C554.001 454.404 553.923 454.319 554.793 453.15C553.289 450.709 551.333 448.449 550.055 446.071Z"/><path fill="#69CE07" transform="scale(1.04379 1.04379)" d="M566.724 456.755L568.684 456.209C569.703 456.824 569.689 456.859 570.507 457.742C572.847 460.651 572.448 457.272 573.031 460.512C569.502 460.862 571.187 461.246 569.231 463.8C567.79 462.823 568.885 461.934 567.499 459.757L560.819 460.13C562.821 458.778 562.179 459.5 563.023 456.884C564.24 456.788 565.553 456.587 566.724 456.755Z"/><path fill="#3CAB08" transform="scale(1.04379 1.04379)" d="M597.532 475.489C598.369 475.376 599.069 475.291 599.916 475.221L600.646 475.165L601.137 473.269L601.856 473.324L602.93 475.47L603.802 475.602C605.149 473.248 605.263 471.984 608.049 472.02C609.798 473.022 609.696 473.104 610.583 474.838C608.651 475.229 606.426 475.623 604.653 476.454C601.153 478.096 600.61 476.713 597.532 475.489Z"/><path fill="#68CD04" transform="scale(1.04379 1.04379)" d="M555.654 456.079C557.804 456.145 561.056 456.166 563.023 456.884C562.179 459.5 562.821 458.778 560.819 460.13C558.419 459.101 557.565 457.918 555.654 456.079Z"/><path fill="#69CE07" transform="scale(1.04379 1.04379)" d="M575.299 463.905C576.981 461.008 575.157 460.947 576.498 459.947C577.796 460.592 578.228 460.728 579.659 460.958C581.666 464.449 577.136 462.368 583.195 464.411C580.414 464.488 578.187 463.979 575.299 463.905Z"/><path fill="#69CE07" transform="scale(1.04379 1.04379)" d="M507.989 435.27C509.594 436.303 509.188 437.31 509.076 439.154C512.531 439.008 512.892 437.323 515.227 439.699C518.606 443.136 521.822 452.768 526.327 454.928L527.01 454.509C527.335 452.496 526.891 451.865 526.153 449.862C528.373 452.614 530.825 455.17 533.481 457.503C538.742 459.453 536.034 457.812 538.096 461.101L539.332 461.148C542.231 461.949 543.978 461.729 546.95 461.767C547.407 463.621 544.936 465.603 543.659 466.872L542.268 466.39C541.3 468.189 541.256 471.143 541.784 472.968C542.68 473.9 542.478 473.335 542.535 474.638C539.329 471.654 536.748 474.344 534.447 468.73C532.237 467.721 531.382 469.084 529.42 468.135C527.864 464.963 526.901 463.325 523.986 461.271C520.832 459.048 521.949 458.191 517.996 458.529C516.167 456.649 516.198 453.318 515.125 451.787C509.621 443.93 507.843 444.959 507.989 435.27Z"/><path fill="#3CAB08" transform="scale(1.04379 1.04379)" d="M533.481 457.503C538.742 459.453 536.034 457.812 538.096 461.101C536.03 461.836 536.425 462.991 534.499 463.371C534.813 460.541 534.723 460.065 533.481 457.503Z"/><path fill="#3CAB08" transform="scale(1.04379 1.04379)" d="M526.153 449.862C524.137 444.993 519.801 442.579 521.311 435.336C523.431 434.246 521.497 436.471 526.061 435.453C534.119 440.625 531.637 452.841 544.613 449.936C545.457 448.636 545.296 448.043 545.492 446.375L546.146 445.906C547.45 445.904 548.262 445.961 549.508 445.518L550.055 446.071C551.333 448.449 553.289 450.709 554.793 453.15C553.923 454.319 554.001 454.404 552.728 455.038L551.027 454.885C550.947 455.004 550.363 457.49 549.933 458.432L550.313 460.546C548.755 461.039 541.477 461.049 539.332 461.148L538.096 461.101C536.034 457.812 538.742 459.453 533.481 457.503C530.825 455.17 528.373 452.614 526.153 449.862Z"/><path fill="#3CAB08" transform="scale(1.04379 1.04379)" d="M634.904 466.385C638.728 461.485 638.431 465.008 641.303 463.749L641.32 462.426C648.377 458.082 657.292 453.805 663.032 448.454L662.578 449.769C660.565 455.746 657.19 459.697 651.135 461.791C647.294 463.082 638.354 467.714 636.267 467.84C635.038 467.215 635.534 467.643 634.904 466.385Z"/><path fill="#68CD04" transform="scale(1.04379 1.04379)" d="M634.904 466.385C635.534 467.643 635.038 467.215 636.267 467.84C638.354 467.714 647.294 463.082 651.135 461.791C648.734 464.439 638.792 468.11 635.124 469.917C633.542 470.696 631.461 468.687 629.444 470.47C628.882 472.774 629.299 472.866 627.849 473.864C626.123 473.511 625.267 472.273 623.787 470.924C620.02 472.32 604.07 478.2 600.824 478.317C593.272 473.955 592.22 480.348 587.502 477.446C587.315 476.422 587.241 475.764 587.149 474.725C584.803 473.016 584.105 473.783 582.511 472.159C583.176 472.284 585.199 472.752 585.732 473.032C588.178 474.32 590.087 472.42 592.193 473.341L592.187 474.132C589.751 474.718 589.575 473.785 587.981 474.79C587.831 476.359 587.636 475.677 588.525 476.921C591.229 477.731 594.754 476.335 597.532 475.489C600.61 476.713 601.153 478.096 604.653 476.454C606.426 475.623 608.651 475.229 610.583 474.838C617.454 471.677 624.67 469.856 631.998 468.321C633.355 468.037 633.419 467.168 633.998 465.982L634.592 467.488L634.904 466.385Z"/><path fill="#69CE07" transform="scale(1.04379 1.04379)" d="M552.013 475.836C550.953 468.802 555.429 473.542 559.195 472.263C558.383 472.539 560.179 470.743 560.673 470.424C563.047 470.994 568.155 472.903 569.864 473.085C572.723 473.39 578.856 470.993 582.129 472.095C579.726 473.559 578.87 472.502 576.659 473.996C576.586 475.629 576.739 475.456 576.186 476.932L575.497 476.758C575.075 475.35 575.217 474.995 575.338 473.535C572.969 472.972 564.39 474.197 561.306 474.07C558.283 473.945 556.426 472.463 553.518 472.855L553.046 473.267L553.361 473.351L554.056 474.116L554.09 473.597L554.267 474.249L552.013 475.836Z"/><path transform="scale(1.04379 1.04379)" d="M582.375 377.669C595.36 376.843 602.157 389.624 601.975 400.948C603.419 402.32 604.591 403.777 605.878 405.293C606.128 409.889 605.903 412.708 605.057 417.163C601.213 420.602 598.61 423.318 593.411 421.259L592.926 420.643L591.231 421.381C573.199 417.998 560.346 382.567 582.375 377.669Z"/><path transform="scale(1.04379 1.04379)" d="M640.768 369.038C651.978 371.075 658.508 381.484 661.072 391.775C662.833 398.847 662.484 407.263 654.078 409.008C653.133 409.061 652.186 409.084 651.24 409.077C645.648 409.017 639.049 404.941 635.194 400.922C635.1 394.254 633.932 385.435 631.041 379.454L632.927 373.457C635.651 371.103 637.558 370.371 640.768 369.038Z"/><path fill="#DBFD83" transform="scale(1.04379 1.04379)" d="M540.919 375.906C543.126 376.009 549.044 378.032 550.369 379.821L550.083 380.987L549.338 381.371C548.593 380.545 547.942 379.862 547.154 379.076L546.452 379.471L546.19 380.574C547.033 382.832 549.85 384.417 551.902 385.873C550.487 387.11 549.233 387.919 548.566 389.634C549.351 396.201 545.653 395.122 542.826 399.362C539.952 403.674 538.377 406.996 534.937 411.188L534.677 411.892C533.483 412.041 532.57 412.259 531.397 412.516C528.042 410.595 524.177 401.26 524.918 397.258C524.879 397.469 525.95 394.604 525.973 394.54C525.353 393.118 524.732 392.141 524.873 390.623L525.673 390.36C526.474 391.122 526.773 391.357 527.671 391.953L528.484 392.488C530.481 388.685 531.201 387.955 534.274 385.192L531.462 381.523C534.01 380.252 538.024 377.522 540.919 375.906Z"/><path fill="#F8FEC7" transform="scale(1.04379 1.04379)" d="M563.892 361.16C579.596 354.252 579.891 353.518 595.708 356.703C599.733 361.875 597.992 364.511 591.876 364.642C589.843 364.686 588.009 366.708 586.485 368.057C585.116 368.085 582.859 368.182 581.767 368.405C580.559 368.652 574.888 370.883 574.315 370.359C569.04 365.54 569.374 373.945 565.451 374.425C563.877 374.532 563.167 374.925 561.501 375.194C561.447 374.954 561.393 374.715 561.338 374.475C559.842 372.868 558.284 372.706 556.12 372.101C555.269 370.437 554.394 367.97 553.695 366.175C556.45 364.447 560.813 362.578 563.892 361.16Z"/><path fill="#DBFD83" transform="scale(1.04379 1.04379)" d="M563.892 361.16C563.278 363.476 562.916 364.679 564.098 366.731C566.445 368.123 566.588 367.722 567.764 369.758C567.321 372.935 565.038 373.032 565.451 374.425C563.877 374.532 563.167 374.925 561.501 375.194C561.447 374.954 561.393 374.715 561.338 374.475C559.842 372.868 558.284 372.706 556.12 372.101C555.269 370.437 554.394 367.97 553.695 366.175C556.45 364.447 560.813 362.578 563.892 361.16Z"/><path fill="#DBFD83" transform="scale(1.04379 1.04379)" d="M675.545 374.829C679.323 374.875 680.74 376.078 684.242 376.966C685.523 376.615 685.614 376.508 686.916 376.575C697.027 396.435 697.822 388.53 694.684 411.112L691.247 406.926C690.11 404.734 687.822 402.131 686.516 399.787C684.393 396.512 681.778 389.528 679.117 386.783C672.846 380.312 672.457 383.184 671.223 373.668C672.053 375.495 673.267 378.906 674.773 379.893C675.779 378.54 675.533 376.611 675.545 374.829Z"/><path fill="#DBFD83" transform="scale(1.04379 1.04379)" d="M556.599 421.848C557.274 421.915 558.544 421.881 559.005 422.319C563.541 426.637 569.756 437.56 565.132 443.385C562.274 439.409 561.606 441.473 558.322 439.827C555.743 438.533 553.041 428.642 552.817 426.03C553.488 424.431 555.271 423.07 556.599 421.848Z"/><path fill="#9AEE1B" transform="scale(1.04379 1.04379)" d="M642.802 420.112L643.794 420.775C644.274 422.969 649.224 424.704 647.133 429.814C645.746 433.206 644.42 434.032 641.243 435.682C639.579 434.406 638.076 432.958 638.113 430.719C638.713 429.407 640.053 428.531 641.288 427.687C643.827 425.954 642.253 424.166 642.802 420.112Z"/><path fill="#F8FEC7" transform="scale(1.04379 1.04379)" d="M601.684 355.155C605.526 355.099 612.575 355.318 613.881 359.938C613.002 361.405 613.319 360.931 611.097 361.535C604.814 364.069 599.574 363.504 601.684 355.155Z"/><path fill="#DBFD83" transform="scale(1.04379 1.04379)" d="M676.18 408.072C678.969 412.2 680.547 414.883 677.553 419.743L676.593 420.137C675.499 418.939 675.935 419.647 675.924 417.459C677.227 413.413 674.55 411.211 676.18 408.072Z"/><path fill="#DBFD83" transform="scale(1.04379 1.04379)" d="M625.453 425.327C627.17 425.837 627.172 425.522 628.083 426.684C628.419 429.896 627.373 432.207 626.587 435.421C624.62 432.936 624.498 431.41 623.948 428.21C623.686 426.69 624.344 426.474 625.453 425.327Z"/><path fill="#69CE07" transform="scale(1.04379 1.04379)" d="M583.808 426.501C586.556 427.438 589.251 428.889 588.251 432.024C586.247 432.812 585.852 432.688 584.402 431.32C583.58 429.278 583.738 428.781 583.808 426.501Z"/><path fill="#9AEE1B" fill-opacity="0.98823529" transform="scale(1.04379 1.04379)" d="M676.18 408.072C674.55 411.211 677.227 413.413 675.924 417.459C674.82 415.684 672.902 415.151 672.862 412.15C673.809 410.027 674.408 409.701 676.18 408.072Z"/><path fill="#69CE07" transform="scale(1.04379 1.04379)" d="M462.456 412.037C465.1 411.841 465.75 411.574 468.282 410.698L473.313 413.43C475.175 412.799 476.861 411.975 478.731 412.39C479.813 413.147 480.085 413.312 481.088 414.188C476.331 416.009 475.886 420.317 480.615 422.324L481.831 422.142L482.349 421.292C482.794 425.432 483.081 428.024 482.981 432.147C483.85 442.913 488.009 444.97 489.166 454.751C490.905 457.628 493.386 461.475 494.914 464.364C496.292 466.869 505.94 480.751 508.859 481.329C514.306 482.407 517.587 487.162 521.576 490.652C523.145 491.656 526.238 493.253 526.887 494.741C524.445 498.39 515.075 502.34 511.454 505.348C507.522 508.614 503.6 508.335 499.899 511.35C494.455 511.631 491.131 511.835 486.204 514.274C485.507 514.619 481.073 516.514 480.373 516.542C468.559 517.02 454.747 513.423 443.912 510.912C442.767 509.452 441.698 507.982 440.602 506.485C431.829 503.418 428.892 497.41 423.458 490.13C421.27 480.241 416.704 476.257 415.14 465.801C415.693 464.069 416.001 463.49 416.843 461.857L417.972 459.411C417.816 457.386 417.219 457.254 415.816 455.282C417.468 449.652 419.885 447.403 422.777 442.514C423.593 441.135 424.592 436.553 425.506 435.39C430.9 428.52 442.559 419.53 449.967 414.867C451.183 414.101 459.248 412.992 461.796 412.238L462.456 412.037ZM478.379 459.749C477.689 456.483 478.215 451.381 474.611 450.277C472.983 450.962 472.945 451.134 471.693 452.318C470.513 451.015 469.393 449.232 467.736 448.837C468.049 450.948 470.003 452.776 471.474 454.369C472.208 455.234 477.29 459.299 478.379 459.749Z"/><path fill="#9AEE1B" fill-opacity="0.98823529" transform="scale(1.04379 1.04379)" d="M471.693 452.318C472.945 451.134 472.983 450.962 474.611 450.277C478.215 451.381 477.689 456.483 478.379 459.749C477.29 459.299 472.208 455.234 471.474 454.369C471.944 453.164 471.852 453.653 471.693 452.318Z"/><path fill="#DBFD83" fill-opacity="0.98823529" transform="scale(1.04379 1.04379)" d="M471.474 454.369C470.003 452.776 468.049 450.948 467.736 448.837C469.393 449.232 470.513 451.015 471.693 452.318C471.852 453.653 471.944 453.164 471.474 454.369Z"/><path fill="#3CAB08" transform="scale(1.04379 1.04379)" d="M416.843 461.857L417.477 461.979C418.789 459.962 417.927 460.527 419.881 459.863C422.239 460.371 424.147 461.474 425.767 459.498C426.769 460.277 427.972 462.245 427.942 463.517L427.25 464.104C434.749 465.798 431.547 468.563 435.438 474.148C439.693 480.255 447.533 485.907 451.968 491.452C458.069 492.445 456.922 494.375 464.738 493.963C463.622 487.957 462.431 488.007 456.753 485.593C452.841 483.929 453.301 484.245 451.385 480.544C452.027 480.359 460.24 477.387 459.452 477.393C464.297 477.353 470.643 487.859 476.529 483.435C477.414 479.357 467.06 476.22 466.206 471.356C467.051 469.524 466.444 470.287 468.219 469.092C469.787 469.085 470.238 469.519 471.584 470.313L471.009 468.284L471.49 467.964C476.398 469.872 477.757 475.137 483.617 479.412L487.03 476.79C485.856 473.877 483.679 466.378 482.9 464.887C484.868 463.59 492.108 464.261 494.914 464.364C496.292 466.869 505.94 480.751 508.859 481.329C514.306 482.407 517.587 487.162 521.576 490.652C523.145 491.656 526.238 493.253 526.887 494.741C524.445 498.39 515.075 502.34 511.454 505.348C507.522 508.614 503.6 508.335 499.899 511.35C494.455 511.631 491.131 511.835 486.204 514.274C485.507 514.619 481.073 516.514 480.373 516.542C468.559 517.02 454.747 513.423 443.912 510.912C442.767 509.452 441.698 507.982 440.602 506.485C431.829 503.418 428.892 497.41 423.458 490.13C421.27 480.241 416.704 476.257 415.14 465.801C415.693 464.069 416.001 463.49 416.843 461.857Z"/><path fill="#69CE07" transform="scale(1.04379 1.04379)" d="M423.458 490.13C424.901 489.659 428.844 488.663 429.808 490.423C431.566 493.632 436.093 494.048 439.114 495.694C439.252 495.77 438.922 499.297 439.812 500.041C444.2 503.708 444.998 501.547 448.364 506.694C451.08 507.583 451.626 506.486 453.993 506.395C456.009 506.319 456.158 510.149 459.162 507.699C463.929 503.812 466.207 507.739 471.522 507.84C474.292 507.892 477.438 505.108 479.754 505.43C479.724 506.366 479.683 506.915 479.563 507.844L480.308 508.212C481.435 506.985 481.698 506.153 482.645 505.389C485.243 503.79 484.775 504.068 487.46 504.379C488.803 503.558 488.473 503.216 489.045 501.157C491.147 501.666 491.835 503.2 493.098 505.015L502.925 502.666C504.189 503.133 503.752 503.056 505.099 503.15C509.442 497.981 514.417 490.806 521.576 490.652C523.145 491.656 526.238 493.253 526.887 494.741C524.445 498.39 515.075 502.34 511.454 505.348C507.522 508.614 503.6 508.335 499.899 511.35C494.455 511.631 491.131 511.835 486.204 514.274C485.507 514.619 481.073 516.514 480.373 516.542C468.559 517.02 454.747 513.423 443.912 510.912C442.767 509.452 441.698 507.982 440.602 506.485C431.829 503.418 428.892 497.41 423.458 490.13Z"/><path fill="#69CE07" transform="scale(1.04379 1.04379)" d="M482.645 505.389C482.115 503.784 482.545 502.544 483.606 501.286C487.366 499.302 486.596 500.934 489.045 501.157C488.473 503.216 488.803 503.558 487.46 504.379C484.775 504.068 485.243 503.79 482.645 505.389Z"/><path fill="#68CD04" transform="scale(1.04379 1.04379)" d="M462.456 412.037C465.1 411.841 465.75 411.574 468.282 410.698L473.313 413.43C475.175 412.799 476.861 411.975 478.731 412.39C479.813 413.147 480.085 413.312 481.088 414.188C476.331 416.009 475.886 420.317 480.615 422.324L481.831 422.142L482.349 421.292C482.794 425.432 483.081 428.024 482.981 432.147C481.929 429.92 480.998 430.045 479.68 428.344C475.394 422.813 470.922 418.128 464.686 414.795C464.611 414.755 464.276 413.183 462.456 412.037Z"/><path fill="#68CD04" transform="scale(1.04379 1.04379)" d="M489.166 454.751C490.905 457.628 493.386 461.475 494.914 464.364C492.108 464.261 484.868 463.59 482.9 464.887C480.062 464.269 478.979 462.343 478.379 459.749C480.562 456.864 485.744 455.447 489.166 454.751Z"/><path fill="#DBFD83" transform="scale(1.04379 1.04379)" d="M460.662 421.008C462.644 420.938 465.075 421.029 467.096 421.048L470.55 428.011C470.122 431.014 469.523 434.411 466.674 436.019L466.156 435.712L467.506 433.287C466.013 433.642 460.88 435.896 460.782 436.266C459.077 442.676 457.691 441.807 451.681 441.266C448.469 440.977 450.091 447.352 449.234 448.211C447.595 449.853 446.282 451.39 444.759 453.661C444.049 453.807 444.392 453.758 443.469 453.192C443.721 451.71 443.88 451.447 443.539 449.971L442.766 449.539L441.491 451.006C438.269 450.326 434.181 444.391 432.479 441.624C438.6 433.431 451.982 426.43 460.662 421.008Z"/><path fill="#69CE07" transform="scale(1.04379 1.04379)" d="M411.929 588.183C415.748 580.66 425.766 572.161 430.341 564.146C432.587 560.212 437.666 555.575 439.908 551.447C442.564 546.558 442.124 541.44 448.173 539.448C452.593 537.83 454.489 539.653 458.589 541.221C462.236 542.615 463.735 540.843 466.82 539.937L467.685 540.634C469.166 544.781 469.477 553.135 469.788 557.839C465.61 555.791 463.874 554.732 460.242 551.69C453.103 562.595 443.67 571.058 433.542 579.117C426.841 584.449 419.865 585.924 411.929 588.183Z"/><path fill="#69CE07" transform="scale(1.04379 1.04379)" d="M387.307 560.899C389.222 560.409 392.597 558.193 394.442 557.094C399.411 557.246 402.614 560.478 405.344 560.527C406.19 559.563 406.482 559.034 407.749 558.639C400.708 571.033 389.207 575.556 385.799 592.23L385.506 593.634C381.773 592.21 374.937 603.365 360.934 594.915C363.528 585.113 368.555 581.458 375.839 575.456C380.492 571.621 384.094 565.963 387.307 560.899Z"/><path fill="#69CE07" transform="scale(1.04379 1.04379)" d="M689.232 233.166L693.651 233.344C694.155 233.752 694.65 234.172 695.137 234.601C699.767 238.709 705.622 243.642 699.201 249.672C692.595 255.877 685.294 257.821 676.419 257.921C669.495 257.472 668.458 257.051 662.899 253.172L662.342 245.71C668.451 239.701 675.365 233.927 684.037 234.398C686.341 234.523 687.435 234.411 689.232 233.166Z"/><path fill="#DBFD83" transform="scale(1.04379 1.04379)" d="M678.45 234.973C681.186 234.826 683.927 234.794 686.666 234.877C690.686 235.032 689.63 236.718 690.698 239.846C690.698 239.846 692.43 241.692 692.611 241.884C691.08 243.154 689.447 244.739 687.971 246.106C683.613 248.565 676.105 241.579 674.919 237.699C675.868 237.361 676.671 237.114 677.638 236.832L678.45 234.973Z"/><path fill="#69CE07" transform="scale(1.04379 1.04379)" d="M556.341 220.47C558.604 220.265 560.683 220.071 562.322 222.063C567.382 228.364 568.95 233.368 561.221 238.833C553.65 244.186 540.207 248.102 532.137 241.493C529.988 239.733 531.666 234.993 532.328 232.469C541.031 224.395 543.19 221.283 555.559 220.33L556.341 220.47Z"/><path fill="#DBFD83" transform="scale(1.04379 1.04379)" d="M555.559 220.33L556.341 220.47C566.647 223.29 557.777 232.21 553.64 235.943L548.805 234.914L544.894 231.158C545.041 228.241 545.311 225.756 545.641 222.862C550.944 222.836 551.054 223.004 555.559 220.33Z"/><path fill="#3CAB08" transform="scale(1.04379 1.04379)" d="M394.442 557.094C399.97 551.974 405.088 546.405 410.387 541.084C413.093 538.368 417.589 533.113 420.69 531.222C423.19 529.686 426.078 528.898 429.012 528.952C430.788 529.001 430.291 528.893 431.607 529.754C431.484 532.332 425.564 538.239 423.52 540.46C420.186 544.081 411.306 556.884 407.749 558.639C406.482 559.034 406.19 559.563 405.344 560.527C402.614 560.478 399.411 557.246 394.442 557.094Z"/><path fill="#69CE07" fill-opacity="0.98823529" transform="scale(1.04379 1.04379)" d="M481.088 414.188C483.83 416.662 483.245 417.88 482.349 421.292L481.831 422.142L480.615 422.324C475.886 420.317 476.331 416.009 481.088 414.188Z"/><path transform="scale(1.04379 1.04379)" d="M1024 1009.24L1024 1024L1008.51 1024C1016.24 1018.48 1018.11 1016.77 1024 1009.24Z"/></svg>